<?xml version="1.0" standalone="no"?>
<!DOCTYPE svg PUBLIC "-//W3C//DTD SVG 20010904//EN"
 "http://www.w3.org/TR/2001/REC-SVG-20010904/DTD/svg10.dtd">
<svg version="1.0" xmlns="http://www.w3.org/2000/svg"
 width="806.000000pt" height="980.000000pt" viewBox="0 0 806.000000 980.000000"
 preserveAspectRatio="xMidYMid meet">

<g transform="translate(0.000000,980.000000) scale(0.100000,-0.100000)"
fill="#000000" stroke="none">
<path d="M4588 9716 c-6 -85 -35 -146 -92 -190 -120 -91 -296 -112 -814 -97
-519 16 -794 -7 -1015 -84 -336 -116 -527 -356 -581 -729 l-12 -79 -94 2
c-118 2 -188 -11 -266 -49 -123 -60 -202 -183 -246 -381 -23 -102 -23 -113
-20 -624 2 -494 20 -972 42 -1165 27 -229 66 -358 162 -540 91 -172 92 -173
161 -355 69 -180 125 -361 154 -497 23 -110 23 -356 1 -445 -8 -35 -13 -63 -9
-63 3 0 37 29 74 65 l68 65 -26 208 c-44 342 -54 430 -65 592 -6 85 -22 297
-35 470 -46 579 -31 797 86 1264 106 423 140 508 238 606 129 128 316 160 564
95 130 -33 253 -88 677 -297 487 -240 678 -324 890 -390 206 -63 380 -87 505
-68 110 17 152 36 297 133 171 115 266 150 403 151 117 1 165 -16 239 -84 118
-109 193 -298 230 -580 27 -208 27 -369 -3 -725 -12 -142 -15 -482 -5 -534 5
-24 9 -29 16 -19 12 17 0 -100 -57 -557 -31 -254 -35 -290 -35 -346 l0 -58 76
-55 c43 -31 78 -55 80 -53 2 2 -7 34 -21 73 -87 252 -70 560 60 1074 8 30 22
87 31 125 10 39 36 102 58 140 66 114 74 133 105 280 78 366 90 597 51 1005
-12 124 -22 246 -23 272 -3 87 46 124 248 184 136 41 173 59 182 92 12 48 -43
79 -237 137 -69 20 -147 46 -173 57 -46 20 -48 23 -45 57 4 51 46 70 174 78
121 7 144 15 144 46 0 33 -15 48 -100 105 -91 61 -148 114 -156 148 -14 57 33
109 151 166 81 39 61 62 -145 174 -69 37 -153 87 -187 111 -79 56 -143 84
-388 173 -253 92 -312 118 -364 165 -72 65 -58 111 81 265 55 61 102 136 93
150 -2 3 -68 -2 -147 -11 -136 -17 -797 -89 -808 -89 -3 0 -3 32 -2 70 5 91
-22 182 -90 310 -77 144 -75 143 -80 56z"/>
<path d="M2901 6799 c-53 -10 -135 -48 -256 -118 -49 -28 -118 -60 -152 -71
-104 -32 -145 -62 -127 -91 8 -14 192 -10 264 6 36 7 115 25 175 39 241 56
428 54 590 -6 114 -43 139 -45 159 -17 23 33 20 72 -6 96 -31 27 -38 31 -99
47 -30 8 -145 39 -256 70 -209 58 -219 60 -292 45z"/>
<path d="M5030 6750 c-135 -32 -260 -66 -278 -75 -59 -27 -68 -97 -17 -131 23
-15 28 -14 91 11 194 78 369 75 704 -12 207 -54 364 -70 376 -38 10 25 -31 59
-98 80 -68 23 -132 55 -229 116 -42 26 -104 59 -137 73 -106 45 -138 43 -412
-24z"/>
<path d="M4900 6290 c-161 -34 -212 -101 -280 -374 -45 -178 -46 -188 -24
-207 14 -11 18 -11 29 5 7 10 18 39 24 64 37 171 47 209 75 265 38 77 97 120
183 135 32 5 59 9 60 8 2 -2 -17 -23 -41 -48 -47 -49 -86 -136 -86 -192 0
-100 66 -202 165 -254 45 -24 60 -27 155 -27 94 1 110 3 155 27 60 32 115 87
146 148 43 82 27 203 -37 279 -32 39 -15 41 52 5 64 -33 140 -107 169 -164 38
-74 69 -188 56 -204 -6 -7 -46 -28 -89 -46 -122 -51 -126 -66 -6 -29 131 40
184 82 184 143 0 48 -46 203 -81 274 -49 101 -131 149 -302 178 -109 18 -443
27 -507 14z m126 -175 c49 -20 70 -71 49 -120 -15 -38 -62 -65 -111 -65 -33 0
-94 59 -94 92 0 38 36 86 72 97 45 13 44 13 84 -4z"/>
<path d="M3105 6264 c-351 -26 -465 -69 -528 -198 -33 -67 -77 -227 -77 -279
0 -60 45 -99 153 -132 47 -15 91 -25 98 -23 7 2 -30 21 -81 43 l-92 39 5 45
c3 25 20 83 37 127 26 69 41 91 91 139 33 32 62 55 65 53 2 -3 -5 -25 -16 -49
-89 -198 113 -412 348 -368 147 27 254 158 239 291 -8 62 -29 102 -86 162
l-46 48 72 -5 c164 -13 232 -86 279 -296 31 -141 35 -152 58 -149 14 2 22 11
24 28 4 36 -84 336 -113 386 -35 59 -87 101 -148 118 -55 16 -199 26 -282 20z
m-175 -197 c34 -17 60 -71 51 -104 -18 -67 -118 -91 -168 -41 -39 40 -37 91 5
129 35 31 71 37 112 16z"/>
<path d="M4324 4858 c-87 -60 -149 -88 -193 -88 -15 0 -78 25 -140 55 -118 58
-135 62 -175 43 -24 -10 -62 -55 -54 -63 2 -2 27 3 56 10 60 16 72 13 123 -26
57 -45 159 -89 204 -89 54 1 115 30 172 83 68 63 86 70 150 62 61 -7 67 3 22
37 -52 38 -79 34 -165 -24z"/>
<path d="M5013 4416 c-16 -21 -45 -30 -248 -70 -341 -68 -483 -87 -712 -93
-295 -8 -680 27 -731 68 -34 26 -61 24 -94 -8 -21 -20 -28 -36 -28 -66 0 -21
4 -47 10 -57 11 -21 60 -40 105 -40 18 0 99 -25 181 -55 313 -117 531 -164
684 -150 152 14 351 83 562 195 174 93 230 119 269 125 51 8 80 36 86 84 10
75 -44 119 -84 67z m-113 -111 c0 -9 -127 -64 -235 -101 -101 -36 -318 -93
-433 -115 -86 -16 -321 -6 -438 20 -183 40 -464 127 -345 107 261 -44 719 -55
944 -23 139 20 312 58 417 91 84 27 90 28 90 21z"/>
<path d="M4475 3879 c-217 -65 -420 -74 -633 -29 -56 12 -113 20 -125 18 -61
-10 171 -91 312 -109 114 -15 243 0 364 40 100 33 199 81 205 99 5 17 -9 15
-123 -19z"/>
<path d="M4355 3654 c-127 -30 -382 -29 -533 2 l-32 7 16 -39 c37 -88 179
-324 195 -324 11 0 13 6 29 70 l12 44 19 -24 c10 -14 33 -70 50 -125 35 -110
49 -135 49 -89 0 74 69 244 99 244 5 0 12 -13 16 -30 4 -16 10 -30 13 -30 18
0 131 217 147 283 8 31 9 31 -80 11z"/>
<path d="M2916 3293 c23 -105 18 -99 117 -154 274 -155 484 -240 713 -289 125
-27 413 -38 536 -21 264 38 533 144 803 314 44 28 82 52 84 53 4 4 19 84 15
84 -1 0 -42 -20 -91 -44 -158 -79 -424 -157 -723 -213 -104 -19 -369 -22 -490
-4 -353 51 -753 171 -917 274 -53 33 -55 33 -47 0z"/>
<path d="M2705 2509 c-859 -41 -1651 -179 -2530 -441 -94 -27 -171 -51 -172
-52 -2 -2 36 -47 84 -102 371 -425 731 -744 1173 -1039 630 -421 1318 -695
2035 -809 486 -77 890 -86 1375 -30 1052 120 2071 591 2903 1342 191 171 490
484 475 494 -23 14 -549 186 -728 237 -738 210 -1333 319 -2049 376 l-74 5 6
-32 c3 -18 18 -100 32 -183 23 -129 26 -159 17 -215 -21 -135 -82 -247 -205
-377 -169 -178 -409 -311 -684 -380 -99 -25 -124 -28 -303 -27 -181 0 -203 2
-300 27 -117 32 -275 103 -371 168 -128 87 -300 271 -396 424 l-32 50 15 70
c25 121 44 262 51 386 l6 119 -84 -2 c-46 0 -156 -4 -244 -9z"/>
</g>
</svg>
